# xmcd CD database file
#
# Track frame offsets:
#	150
#	19035
#	31317
#	49860
#	74557
#	82870
#	101152
#	121092
#	138575
#	159552
#
# Disc length: 2311 seconds
#
# Revision: 0
# Processed by: cddbd v1.5.1PL0 Copyright (c) Steve Scherf et al.
# Submitted via: CDex 1.51
#
DISCID=8009050a
DTITLE=SILVER STARS - SEE
DYEAR=1980
DGENRE=Hard Rock
TTITLE0=MARCO POLO
TTITLE1=FULL SAIL
TTITLE2=GOLDEN CAR
TTITLE3=KOSHIEN MY HEART
TTITLE4=TELEPORTION
TTITLE5=LADY
TTITLE6=FIND IT!!
TTITLE7=IT'S A LONG WAY
TTITLE8=ENLIGHTEN
TTITLE9=RETURN OF A PRODIGAL SON
EXTD=YEAR: 1980
EXTT0=
EXTT1=
EXTT2=
EXTT3=
EXTT4=
EXTT5=
EXTT6=
EXTT7=
EXTT8=
EXTT9=
PLAYORDER=
